ffmpeg started on 2025-06-06 at 18:36:07
Report written to "D:\Convert\FFMetrics\reports\ssim_report-6.txt"
Log level: 32
Command line:
ffmpeg -hide_banner -nostdin -i "G:\\\xc0\xed\xe8\xec\xe5\\\xce\xed\xe3\xee\xe8\xed\xe3\xe8\\!_36_\xce\xf1\xe5\xed\xfc_2024\\DreamCast\\\xcf\xf0\xee\xf9\xe0\xe9, \xe6\xe8\xe7\xed\xfc \xe4\xf0\xe0\xea\xee\xed\xe0. \xc7\xe4\xf0\xe0\xe2\xf1\xf2\xe2\xf3\xe9, \xe6\xe8\xe7\xed\xfc \xf7\xe5\xeb\xee\xe2\xe5\xea\xe0\\[DC] Sayonara Ryuusei Konnichiwa Jinsei - 12_Telegram_HEVC.mkv" -i "G:\\\xc0\xed\xe8\xec\xe5\\\xce\xed\xe3\xee\xe8\xed\xe3\xe8\\!_36_\xce\xf1\xe5\xed\xfc_2024\\DreamCast\\\xcf\xf0\xee\xf9\xe0\xe9, \xe6\xe8\xe7\xed\xfc \xe4\xf0\xe0\xea\xee\xed\xe0. \xc7\xe4\xf0\xe0\xe2\xf1\xf2\xe2\xf3\xe9, \xe6\xe8\xe7\xed\xfc \xf7\xe5\xeb\xee\xe2\xe5\xea\xe0\\[DC] Sayonara Ryuusei Konnichiwa Jinsei - 12_Telegram.mp4" -lavfi "[0:v]settb=AVTB,setpts=PTS-STARTPTS,format=pix_fmts=yuv420p10,fps=24000/1001,scale=1920:1080:flags=bicubic[main];[1:v]settb=AVTB,setpts=PTS-STARTPTS,format=pix_fmts=yuv420p,fps=24000/1001,scale=1920:1080:flags=bicubic[ref];[main][ref]ssim=eof_action=endall:stats_file='D\\:/Convert/FFMetrics/logs/ssim_logfile-6.txt'" -f null -
Input #0, matroska,webm, from 'G:\Аниме\Онгоинги\!_36_Осень_2024\DreamCast\Прощай, жизнь дракона. Здравствуй, жизнь человека\[DC] Sayonara Ryuusei Konnichiwa Jinsei - 12_Telegram_HEVC.mkv':
  Metadata:
    COMPATIBLE_BRANDS: isomiso2avc1mp41
    MAJOR_BRAND     : isom
    MINOR_VERSION   : 512
    ENCODER         : Lavf61.7.100
  Duration: 00:24:02.01, start: -0.021000, bitrate: 1102 kb/s
  Chapters:
    Chapter #0:0: start 0.000000, end 1345.000000
      Metadata:
        title           : 
    Chapter #0:1: start 1345.000000, end 1435.000000
      Metadata:
        title           : 
    Chapter #0:2: start 1435.000000, end 1441.963000
      Metadata:
        title           : 
  Stream #0:0: Video: hevc (Main 10), yuv420p10le(tv, bt709, progressive), 1920x1080 [SAR 1:1 DAR 16:9], 23.98 fps, 23.98 tbr, 1k tbn (default)
      Metadata:
        HANDLER_NAME    : VideoHandler
        VENDOR_ID       : [0][0][0][0]
        ENCODER         : Lavc61.19.100 libx265
        BPS             : 905576
        DURATION        : 00:24:01.606708333
        NUMBER_OF_FRAMES: 34564
        NUMBER_OF_BYTES : 163185501
        _STATISTICS_WRITING_APP: mkvpropedit v66.0.0 ('Josie') 64-bit
        _STATISTICS_WRITING_DATE_UTC: 2025-06-03 11:26:38
        _STATISTICS_TAGS: BPS DURATION NUMBER_OF_FRAMES NUMBER_OF_BYTES
  Stream #0:1: Audio: aac (LC), 48000 Hz, stereo, fltp (default)
      Metadata:
        HANDLER_NAME    : SoundHandler
        VENDOR_ID       : [0][0][0][0]
        ENCODER         : Lavc61.19.100 aac
        BPS             : 193404
        DURATION        : 00:24:02.005000000
        NUMBER_OF_FRAMES: 67595
        NUMBER_OF_BYTES : 34861231
        _STATISTICS_WRITING_APP: mkvpropedit v66.0.0 ('Josie') 64-bit
        _STATISTICS_WRITING_DATE_UTC: 2025-06-03 11:26:38
        _STATISTICS_TAGS: BPS DURATION NUMBER_OF_FRAMES NUMBER_OF_BYTES
[mov,mp4,m4a,3gp,3g2,mj2 @ 00000210d60cf780] Referenced QT chapter track not found
Input #1, mov,mp4,m4a,3gp,3g2,mj2, from 'G:\Аниме\Онгоинги\!_36_Осень_2024\DreamCast\Прощай, жизнь дракона. Здравствуй, жизнь человека\[DC] Sayonara Ryuusei Konnichiwa Jinsei - 12_Telegram.mp4':
  Metadata:
    major_brand     : isom
    minor_version   : 512
    compatible_brands: isomiso2avc1mp41
    encoder         : Lavf61.7.100
  Duration: 00:24:01.96, start: 0.000000, bitrate: 3796 kb/s
  Chapters:
    Chapter #1:0: start 0.000000, end 1345.000000
      Metadata:
        title           : 
    Chapter #1:1: start 1345.000000, end 1435.000000
      Metadata:
        title           : 
    Chapter #1:2: start 1435.000000, end 1441.963000
      Metadata:
        title           : 
  Stream #1:0[0x1](und): Video: h264 (High) (avc1 / 0x31637661), yuv420p(tv, bt709, progressive), 1920x1080 [SAR 1:1 DAR 16:9], 3649 kb/s, 23.98 fps, 23.98 tbr, 24k tbn (default)
      Metadata:
        handler_name    : VideoHandler
        vendor_id       : [0][0][0][0]
        encoder         : Lavc61.19.101 h264_qsv
  Stream #1:1[0x2](und): Audio: aac (HE-AACv2) (mp4a / 0x6134706D), 48000 Hz, stereo, fltp, 144 kb/s (default)
      Metadata:
        handler_name    : SoundHandler
        vendor_id       : [0][0][0][0]
Stream mapping:
  Stream #0:0 (hevc) -> settb:default
  Stream #1:0 (h264) -> settb:default
  ssim:default -> Stream #0:0 (wrapped_avframe)
  Stream #0:1 -> #0:1 (aac (native) -> pcm_s16le (native))
Output #0, null, to 'pipe:':
  Metadata:
    COMPATIBLE_BRANDS: isomiso2avc1mp41
    MAJOR_BRAND     : isom
    MINOR_VERSION   : 512
    encoder         : Lavf61.7.100
  Chapters:
    Chapter #0:0: start 0.021000, end 1345.021000
      Metadata:
        title           : 
    Chapter #0:1: start 1345.021000, end 1435.021000
      Metadata:
        title           : 
    Chapter #0:2: start 1435.021000, end 1441.984000
      Metadata:
        title           : 
  Stream #0:0: Video: wrapped_avframe, yuv420p10le(tv, bt709, progressive), 1920x1080 [SAR 1:1 DAR 16:9], q=2-31, 200 kb/s, 23.98 fps, 23.98 tbn
      Metadata:
        encoder         : Lavc61.19.100 wrapped_avframe
  Stream #0:1: Audio: pcm_s16le, 48000 Hz, stereo, s16, 1536 kb/s (default)
      Metadata:
        HANDLER_NAME    : SoundHandler
        VENDOR_ID       : [0][0][0][0]
        _STATISTICS_TAGS: BPS DURATION NUMBER_OF_FRAMES NUMBER_OF_BYTES
        BPS             : 193404
        DURATION        : 00:24:02.005000000
        NUMBER_OF_FRAMES: 67595
        NUMBER_OF_BYTES : 34861231
        _STATISTICS_WRITING_APP: mkvpropedit v66.0.0 ('Josie') 64-bit
        _STATISTICS_WRITING_DATE_UTC: 2025-06-03 11:26:38
        encoder         : Lavc61.19.100 pcm_s16le
frame=  178 fps=0.0 q=-0.0 size=N/A time=00:00:07.42 bitrate=N/A speed=14.4x    frame=  415 fps=401 q=-0.0 size=N/A time=00:00:17.30 bitrate=N/A speed=16.7x    frame=  646 fps=418 q=-0.0 size=N/A time=00:00:26.94 bitrate=N/A speed=17.4x    frame=  892 fps=432 q=-0.0 size=N/A time=00:00:37.20 bitrate=N/A speed=  18x    frame= 1123 fps=437 q=-0.0 size=N/A time=00:00:46.83 bitrate=N/A speed=18.2x    frame= 1383 fps=447 q=-0.0 size=N/A time=00:00:57.68 bitrate=N/A speed=18.6x    frame= 1646 fps=456 q=-0.0 size=N/A time=00:01:08.65 bitrate=N/A speed=  19x    frame= 1902 fps=460 q=-0.0 size=N/A time=00:01:19.32 bitrate=N/A speed=19.2x    frame= 2145 fps=462 q=-0.0 size=N/A time=00:01:29.46 bitrate=N/A speed=19.3x    frame= 2351 fps=456 q=-0.0 size=N/A time=00:01:38.05 bitrate=N/A speed=  19x    frame= 2565 fps=452 q=-0.0 size=N/A time=00:01:46.98 bitrate=N/A speed=18.8x    frame= 2788 fps=450 q=-0.0 size=N/A time=00:01:56.28 bitrate=N/A speed=18.8x    frame= 3001 fps=447 q=-0.0 size=N/A time=00:02:05.16 bitrate=N/A speed=18.6x    frame= 3238 fps=447 q=-0.0 size=N/A time=00:02:15.05 bitrate=N/A speed=18.7x    frame= 3472 fps=448 q=-0.0 size=N/A time=00:02:24.81 bitrate=N/A speed=18.7x    frame= 3705 fps=448 q=-0.0 size=N/A time=00:02:34.52 bitrate=N/A speed=18.7x    frame= 3955 fps=450 q=-0.0 size=N/A time=00:02:44.95 bitrate=N/A speed=18.8x    frame= 4212 fps=453 q=-0.0 size=N/A time=00:02:55.67 bitrate=N/A speed=18.9x    frame= 4471 fps=455 q=-0.0 size=N/A time=00:03:06.47 bitrate=N/A speed=  19x    frame= 4736 fps=459 q=-0.0 size=N/A time=00:03:17.53 bitrate=N/A speed=19.1x    frame= 5019 fps=463 q=-0.0 size=N/A time=00:03:29.33 bitrate=N/A speed=19.3x    frame= 5265 fps=463 q=-0.0 size=N/A time=00:03:39.59 bitrate=N/A speed=19.3x    frame= 5521 fps=465 q=-0.0 size=N/A time=00:03:50.27 bitrate=N/A speed=19.4x    frame= 5792 fps=467 q=-0.0 size=N/A time=00:04:01.57 bitrate=N/A speed=19.5x    frame= 6024 fps=467 q=-0.0 size=N/A time=00:04:11.25 bitrate=N/A speed=19.5x    frame= 6260 fps=466 q=-0.0 size=N/A time=00:04:21.09 bitrate=N/A speed=19.4x    frame= 6514 fps=467 q=-0.0 size=N/A time=00:04:31.68 bitrate=N/A speed=19.5x    frame= 6781 fps=469 q=-0.0 size=N/A time=00:04:42.82 bitrate=N/A speed=19.6x    frame= 7046 fps=471 q=-0.0 size=N/A time=00:04:53.87 bitrate=N/A speed=19.6x    frame= 7289 fps=471 q=-0.0 size=N/A time=00:05:04.01 bitrate=N/A speed=19.6x    frame= 7527 fps=470 q=-0.0 size=N/A time=00:05:13.93 bitrate=N/A speed=19.6x    frame= 7774 fps=471 q=-0.0 size=N/A time=00:05:24.24 bitrate=N/A speed=19.6x    frame= 8045 fps=472 q=-0.0 size=N/A time=00:05:35.54 bitrate=N/A speed=19.7x    frame= 8320 fps=474 q=-0.0 size=N/A time=00:05:47.01 bitrate=N/A speed=19.8x    frame= 8585 fps=475 q=-0.0 size=N/A time=00:05:58.06 bitrate=N/A speed=19.8x    frame= 8805 fps=474 q=-0.0 size=N/A time=00:06:07.24 bitrate=N/A speed=19.8x    frame= 9023 fps=473 q=-0.0 size=N/A time=00:06:16.33 bitrate=N/A speed=19.7x    frame= 9253 fps=472 q=-0.0 size=N/A time=00:06:25.92 bitrate=N/A speed=19.7x    frame= 9505 fps=472 q=-0.0 size=N/A time=00:06:36.43 bitrate=N/A speed=19.7x    frame= 9769 fps=473 q=-0.0 size=N/A time=00:06:47.44 bitrate=N/A speed=19.7x    frame=10014 fps=473 q=-0.0 size=N/A time=00:06:57.66 bitrate=N/A speed=19.7x    frame=10272 fps=474 q=-0.0 size=N/A time=00:07:08.42 bitrate=N/A speed=19.8x    frame=10529 fps=475 q=-0.0 size=N/A time=00:07:19.14 bitrate=N/A speed=19.8x    frame=10797 fps=475 q=-0.0 size=N/A time=00:07:30.32 bitrate=N/A speed=19.8x    frame=11010 fps=474 q=-0.0 size=N/A time=00:07:39.20 bitrate=N/A speed=19.8x    frame=11210 fps=472 q=-0.0 size=N/A time=00:07:47.55 bitrate=N/A speed=19.7x    frame=11423 fps=471 q=-0.0 size=N/A time=00:07:56.43 bitrate=N/A speed=19.6x    frame=11659 fps=471 q=-0.0 size=N/A time=00:08:06.27 bitrate=N/A speed=19.6x    frame=11875 fps=470 q=-0.0 size=N/A time=00:08:15.28 bitrate=N/A speed=19.6x    frame=12093 fps=469 q=-0.0 size=N/A time=00:08:24.37 bitrate=N/A speed=19.5x    frame=12330 fps=469 q=-0.0 size=N/A time=00:08:34.26 bitrate=N/A speed=19.5x    frame=12576 fps=469 q=-0.0 size=N/A time=00:08:44.52 bitrate=N/A speed=19.5x    frame=12831 fps=469 q=-0.0 size=N/A time=00:08:55.15 bitrate=N/A speed=19.6x    frame=13085 fps=470 q=-0.0 size=N/A time=00:09:05.75 bitrate=N/A speed=19.6x    frame=13348 fps=470 q=-0.0 size=N/A time=00:09:16.72 bitrate=N/A speed=19.6x    frame=13622 fps=471 q=-0.0 size=N/A time=00:09:28.15 bitrate=N/A speed=19.7x    frame=13871 fps=472 q=-0.0 size=N/A time=00:09:38.53 bitrate=N/A speed=19.7x    frame=14131 fps=472 q=-0.0 size=N/A time=00:09:49.38 bitrate=N/A speed=19.7x    frame=14392 fps=473 q=-0.0 size=N/A time=00:10:00.26 bitrate=N/A speed=19.7x    frame=14667 fps=474 q=-0.0 size=N/A time=00:10:11.73 bitrate=N/A speed=19.8x    frame=14917 fps=474 q=-0.0 size=N/A time=00:10:22.16 bitrate=N/A speed=19.8x    frame=15184 fps=474 q=-0.0 size=N/A time=00:10:33.29 bitrate=N/A speed=19.8x    frame=15431 fps=475 q=-0.0 size=N/A time=00:10:43.60 bitrate=N/A speed=19.8x    frame=15692 fps=475 q=-0.0 size=N/A time=00:10:54.48 bitrate=N/A speed=19.8x    frame=15975 fps=476 q=-0.0 size=N/A time=00:11:06.29 bitrate=N/A speed=19.9x    frame=16223 fps=476 q=-0.0 size=N/A time=00:11:16.63 bitrate=N/A speed=19.9x    frame=16487 fps=477 q=-0.0 size=N/A time=00:11:27.64 bitrate=N/A speed=19.9x    frame=16747 fps=477 q=-0.0 size=N/A time=00:11:38.48 bitrate=N/A speed=19.9x    frame=17022 fps=478 q=-0.0 size=N/A time=00:11:49.95 bitrate=N/A speed=19.9x    frame=17317 fps=479 q=-0.0 size=N/A time=00:12:02.26 bitrate=N/A speed=  20x    frame=17598 fps=480 q=-0.0 size=N/A time=00:12:13.98 bitrate=N/A speed=  20x    frame=17877 fps=481 q=-0.0 size=N/A time=00:12:25.61 bitrate=N/A speed=20.1x    frame=18153 fps=482 q=-0.0 size=N/A time=00:12:37.13 bitrate=N/A speed=20.1x    frame=18406 fps=482 q=-0.0 size=N/A time=00:12:47.68 bitrate=N/A speed=20.1x    frame=18672 fps=482 q=-0.0 size=N/A time=00:12:58.77 bitrate=N/A speed=20.1x    frame=18938 fps=483 q=-0.0 size=N/A time=00:13:09.87 bitrate=N/A speed=20.1x    frame=19176 fps=483 q=-0.0 size=N/A time=00:13:19.79 bitrate=N/A speed=20.1x    frame=19417 fps=482 q=-0.0 size=N/A time=00:13:29.85 bitrate=N/A speed=20.1x    frame=19654 fps=482 q=-0.0 size=N/A time=00:13:39.73 bitrate=N/A speed=20.1x    frame=19892 fps=482 q=-0.0 size=N/A time=00:13:49.66 bitrate=N/A speed=20.1x    frame=20107 fps=481 q=-0.0 size=N/A time=00:13:58.62 bitrate=N/A speed=20.1x    frame=20309 fps=480 q=-0.0 size=N/A time=00:14:07.05 bitrate=N/A speed=  20x    frame=20488 fps=478 q=-0.0 size=N/A time=00:14:14.52 bitrate=N/A speed=19.9x    frame=20693 fps=477 q=-0.0 size=N/A time=00:14:23.07 bitrate=N/A speed=19.9x    frame=20944 fps=477 q=-0.0 size=N/A time=00:14:33.53 bitrate=N/A speed=19.9x    frame=21203 fps=478 q=-0.0 size=N/A time=00:14:44.34 bitrate=N/A speed=19.9x    frame=21437 fps=477 q=-0.0 size=N/A time=00:14:54.10 bitrate=N/A speed=19.9x    frame=21687 fps=478 q=-0.0 size=N/A time=00:15:04.52 bitrate=N/A speed=19.9x    frame=21919 fps=477 q=-0.0 size=N/A time=00:15:14.20 bitrate=N/A speed=19.9x    frame=22178 fps=478 q=-0.0 size=N/A time=00:15:25.00 bitrate=N/A speed=19.9x    frame=22436 fps=478 q=-0.0 size=N/A time=00:15:35.76 bitrate=N/A speed=19.9x    frame=22695 fps=478 q=-0.0 size=N/A time=00:15:46.57 bitrate=N/A speed=19.9x    frame=22945 fps=478 q=-0.0 size=N/A time=00:15:56.99 bitrate=N/A speed=19.9x    frame=23183 fps=478 q=-0.0 size=N/A time=00:16:06.92 bitrate=N/A speed=19.9x    frame=23475 fps=479 q=-0.0 size=N/A time=00:16:19.10 bitrate=N/A speed=  20x    frame=23721 fps=479 q=-0.0 size=N/A time=00:16:29.36 bitrate=N/A speed=  20x    frame=23969 fps=479 q=-0.0 size=N/A time=00:16:39.70 bitrate=N/A speed=  20x    frame=24240 fps=479 q=-0.0 size=N/A time=00:16:51.01 bitrate=N/A speed=  20x    frame=24525 fps=480 q=-0.0 size=N/A time=00:17:02.89 bitrate=N/A speed=  20x    frame=24791 fps=480 q=-0.0 size=N/A time=00:17:13.99 bitrate=N/A speed=  20x    frame=25020 fps=480 q=-0.0 size=N/A time=00:17:23.54 bitrate=N/A speed=  20x    frame=25293 fps=481 q=-0.0 size=N/A time=00:17:34.92 bitrate=N/A speed=  20x    frame=25557 fps=481 q=-0.0 size=N/A time=00:17:45.93 bitrate=N/A speed=20.1x    frame=25809 fps=481 q=-0.0 size=N/A time=00:17:56.45 bitrate=N/A speed=20.1x    frame=26062 fps=481 q=-0.0 size=N/A time=00:18:07.00 bitrate=N/A speed=20.1x    frame=26302 fps=481 q=-0.0 size=N/A time=00:18:17.01 bitrate=N/A speed=20.1x    frame=26573 fps=481 q=-0.0 size=N/A time=00:18:28.31 bitrate=N/A speed=20.1x    frame=26849 fps=482 q=-0.0 size=N/A time=00:18:39.82 bitrate=N/A speed=20.1x    frame=27105 fps=482 q=-0.0 size=N/A time=00:18:50.50 bitrate=N/A speed=20.1x    frame=27363 fps=482 q=-0.0 size=N/A time=00:19:01.26 bitrate=N/A speed=20.1x    frame=27600 fps=482 q=-0.0 size=N/A time=00:19:11.15 bitrate=N/A speed=20.1x    frame=27840 fps=482 q=-0.0 size=N/A time=00:19:21.16 bitrate=N/A speed=20.1x    frame=28113 fps=482 q=-0.0 size=N/A time=00:19:32.54 bitrate=N/A speed=20.1x    frame=28334 fps=482 q=-0.0 size=N/A time=00:19:41.76 bitrate=N/A speed=20.1x    frame=28585 fps=482 q=-0.0 size=N/A time=00:19:52.23 bitrate=N/A speed=20.1x    frame=28873 fps=482 q=-0.0 size=N/A time=00:20:04.24 bitrate=N/A speed=20.1x    frame=29144 fps=483 q=-0.0 size=N/A time=00:20:15.54 bitrate=N/A speed=20.1x    frame=29432 fps=483 q=-0.0 size=N/A time=00:20:27.55 bitrate=N/A speed=20.2x    frame=29683 fps=483 q=-0.0 size=N/A time=00:20:38.02 bitrate=N/A speed=20.2x    frame=29903 fps=483 q=-0.0 size=N/A time=00:20:47.20 bitrate=N/A speed=20.1x    frame=30136 fps=483 q=-0.0 size=N/A time=00:20:56.92 bitrate=N/A speed=20.1x    frame=30357 fps=482 q=-0.0 size=N/A time=00:21:06.13 bitrate=N/A speed=20.1x    frame=30602 fps=482 q=-0.0 size=N/A time=00:21:16.35 bitrate=N/A speed=20.1x    frame=30857 fps=482 q=-0.0 size=N/A time=00:21:26.99 bitrate=N/A speed=20.1x    frame=31089 fps=482 q=-0.0 size=N/A time=00:21:36.67 bitrate=N/A speed=20.1x    frame=31333 fps=482 q=-0.0 size=N/A time=00:21:46.84 bitrate=N/A speed=20.1x    frame=31583 fps=482 q=-0.0 size=N/A time=00:21:57.27 bitrate=N/A speed=20.1x    frame=31823 fps=482 q=-0.0 size=N/A time=00:22:07.28 bitrate=N/A speed=20.1x    frame=32066 fps=482 q=-0.0 size=N/A time=00:22:17.41 bitrate=N/A speed=20.1x    frame=32274 fps=481 q=-0.0 size=N/A time=00:22:26.09 bitrate=N/A speed=20.1x    frame=32488 fps=481 q=-0.0 size=N/A time=00:22:35.02 bitrate=N/A speed=  20x    frame=32691 fps=480 q=-0.0 size=N/A time=00:22:43.48 bitrate=N/A speed=  20x    frame=32927 fps=480 q=-0.0 size=N/A time=00:22:53.33 bitrate=N/A speed=  20x    frame=33159 fps=480 q=-0.0 size=N/A time=00:23:03.00 bitrate=N/A speed=  20x    frame=33395 fps=479 q=-0.0 size=N/A time=00:23:12.84 bitrate=N/A speed=  20x    frame=33602 fps=479 q=-0.0 size=N/A time=00:23:21.48 bitrate=N/A speed=  20x    frame=33820 fps=478 q=-0.0 size=N/A time=00:23:30.57 bitrate=N/A speed=  20x    frame=34023 fps=478 q=-0.0 size=N/A time=00:23:39.04 bitrate=N/A speed=19.9x    frame=34164 fps=476 q=-0.0 size=N/A time=00:23:44.92 bitrate=N/A speed=19.9x    frame=34325 fps=475 q=-0.0 size=N/A time=00:23:51.63 bitrate=N/A speed=19.8x    frame=34549 fps=475 q=-0.0 size=N/A time=00:24:00.98 bitrate=N/A speed=19.8x    [Parsed_ssim_10 @ 00000210d8ab6580] SSIM Y:0.994700 (22.757560) U:0.993319 (21.751364) V:0.993685 (21.995996) All:0.994301 (22.441864)
[out#0/null @ 00000210d60e0580] video:14852KiB audio:270380KiB subtitle:0KiB other streams:0KiB global headers:0KiB muxing overhead: unknown
frame=34564 fps=475 q=-0.0 Lsize=N/A time=00:24:01.60 bitrate=N/A speed=19.8x    
